<svg width="42" height="34" viewBox="0 0 42 34" fill="none" xmlns="http://www.w3.org/2000/svg">
<path d="M34.9368 27.5273C33.6402 26.0438 32.3672 24.6372 31.1568 23.1759C30.6816 22.6024 30.1702 22.3931 29.4221 22.3419C27.4985 22.2062 26.0263 22.6302 24.5901 24.2094C22.6992 26.2892 20.3771 27.9921 18.1625 29.7615C17.4336 30.3442 17.1115 30.7805 17.7139 31.5695C17.864 31.7678 18.0369 31.9922 18.0689 32.225C18.1164 32.5819 18.1799 33.0537 17.997 33.2967C17.8177 33.5338 17.3248 33.655 16.9895 33.6271C16.2746 33.5641 15.5698 33.3862 14.8664 33.23C14.1161 33.0632 13.4204 32.929 12.7127 33.516C12.5566 33.6467 11.9411 33.2218 11.5359 33.0542C11.5779 32.9459 11.6215 32.8362 11.662 32.7262C9.43372 32.6676 7.20379 32.6104 4.93541 32.5525C4.94081 31.5045 5.60386 31.1657 6.34934 30.9412C7.9379 30.4641 9.53362 30.0152 11.313 29.5003C10.3976 28.5894 9.57968 27.7766 8.74615 26.946C9.13568 25.8088 10.0022 25.4899 11.1103 25.5905C12.4768 25.7173 13.8399 25.8901 15.2116 25.9465C15.6034 25.9624 16.1457 25.7549 16.3972 25.4606C17.4956 24.1766 18.5159 22.8234 19.7695 21.2347C17.9333 21.2289 16.3056 21.0294 14.7343 21.2535C10.1232 21.9105 5.5302 22.7379 0.925027 23.5015C0.893503 21.9756 1.33519 21.3603 2.8657 20.7935C10.6307 17.9187 18.3783 14.9875 26.1801 12.218C28.0301 11.5612 28.8179 10.0415 29.8879 8.74509C31.195 7.16123 32.3135 5.42131 33.5059 3.7428C34.3455 2.56183 35.3136 1.60101 36.8095 1.25076C37.57 1.0733 38.2663 0.619513 39.0107 0.347189C40.3934 -0.159198 41.3628 0.584138 41.0747 2.03689C40.8822 3.01049 40.5759 4.04345 40.03 4.85879C38.0198 7.85967 35.8761 10.7709 33.8203 13.7429C33.5819 14.0888 33.4134 14.6574 33.5161 15.0377C34.3538 18.1144 35.264 21.1709 36.152 24.2353C36.6538 25.9634 36.5496 26.2666 34.9368 27.5273Z" fill="white"/>
</svg>